<?xml version="1.0" encoding="UTF-8"?>
<svg width="700px" height="500px" viewBox="0 0 700 500" version="1.1" xmlns="http://www.w3.org/2000/svg" xmlns:xlink="http://www.w3.org/1999/xlink">
    <!-- Generator: Sketch 50.2 (55047) - http://www.bohemiancoding.com/sketch -->
    <title>logo_default</title>
    <desc>Created with Sketch.</desc>
    <defs></defs>
    <g id="logo_default" stroke="none" stroke-width="1" fill="none" fill-rule="evenodd">
        <path d="M575.2031,338.2646 L331.1301,368.3546 L362.1321,336.8576 L124.7971,365.8836 L124.7971,156.3316 L362.4781,127.5436 L362.4781,155.1126 L575.2031,128.7126 L575.2031,338.2646 Z M598.5581,101.3326 L387.1691,127.5686 L387.1691,99.9996 L100.0001,134.7376 L100.0001,393.4406 L305.7751,368.5026 L274.7731,399.9996 L600.0001,359.8586 L600.0001,101.1566 L598.5581,101.3326 Z" id="Fill-1" fill="#1DB53A"></path>
        <g id="Group-15" transform="translate(151.000000, 200.000000)" fill="#FFFFFF">
            <path d="M34.9517,35.8208 C39.7427,44.2438 47.3857,50.9598 59.2477,54.4878 L68.1437,40.0318 C49.8937,34.9098 44.3057,22.5038 44.3057,10.4378 L44.3057,0.1938 L25.4847,0.1938 L25.4847,10.4378 C25.4847,22.6168 19.5527,36.1618 0.6187,41.7398 L9.6297,56.1958 C22.0617,52.5528 30.1607,45.0408 34.9517,35.8208" id="Fill-2"></path>
            <polygon id="Fill-4" points="17.6147 77.709 73.0487 77.709 73.0487 99.807 91.5277 99.807 91.5277 63.253 17.6147 63.253"></polygon>
            <polygon id="Fill-6" points="73.049 59.042 91.528 59.042 91.528 0.194 73.049 0.194"></polygon>
            <polygon id="Fill-8" points="154.5884 65.9844 173.7524 65.9844 173.7524 75.8874 192.2294 75.8874 192.2294 0.1934 173.7524 0.1934 173.7524 51.9834 154.5884 51.9834"></polygon>
            <path d="M131.3203,69.5127 L144.3223,69.5127 L144.3223,47.4307 C152.4223,46.7477 160.7483,45.7237 168.7333,44.2437 L167.4783,31.3817 C164.6273,31.8367 161.6613,32.1787 158.4673,32.4057 C160.4063,18.9747 160.4063,5.6577 160.4063,0.1937 L108.8483,0.1937 L108.8483,14.6497 L141.9273,14.6497 C141.6993,19.7707 141.1293,26.2597 139.9883,33.8857 C125.3883,34.6827 111.0163,34.7967 99.0403,34.9097 L101.2073,49.2527 C108.7353,49.2527 117.1763,49.0247 125.9583,48.6837 L125.9583,68.2607 L112.9563,68.2607 L112.9563,99.8067 L194.5113,99.8067 L194.5113,85.0017 L131.3203,85.0017 L131.3203,69.5127 Z" id="Fill-9"></path>
            <polygon id="Fill-10" points="268.6777 50.3906 275.4077 50.3906 275.4077 99.8066 292.8597 99.8066 292.8597 0.1936 275.4077 0.1936 275.4077 35.8206 268.6777 35.8206 268.6777 0.1936 251.5687 0.1936 251.5687 99.8066 268.6777 99.8066"></polygon>
            <path d="M202.9766,79.416 L210.7326,79.416 C223.1656,79.416 234.6866,79.075 247.9176,76.798 L246.5496,62.001 C237.5386,63.48 229.2116,64.163 221.1126,64.392 L221.1126,15.484 L242.3286,15.484 L242.3286,0.194 L202.9766,0.194 L202.9766,79.416 Z" id="Fill-11"></path>
            <polygon id="Fill-12" points="384.3838 32.7607 397.3808 32.7607 397.3808 18.2397 384.3838 18.2397 384.3838 0.1697 366.3868 0.1697 366.3868 56.8177 384.3838 56.8177"></polygon>
            <path d="M299.5107,44.8447 L308.5087,58.9237 C320.6167,55.1557 328.5047,47.3947 333.0597,37.8607 C337.6147,45.6207 344.9467,51.8287 356.1657,55.0437 L364.7207,41.0747 C348.8347,36.5307 342.9477,26.5527 341.8357,16.3537 L360.7217,16.3537 L360.7217,0.1697 L304.0647,0.1697 L304.0647,16.3537 L323.2837,16.3537 C322.2837,27.6617 316.0627,39.5237 299.5107,44.8447" id="Fill-13"></path>
            <path d="M349.7227,86.1943 C337.7247,86.1943 331.8367,84.0893 331.8367,78.9883 C331.8367,73.8893 337.7247,71.8933 349.7227,71.8933 C361.8317,71.8933 367.7197,73.8893 367.7197,78.9883 C367.7197,84.0893 361.8317,86.1943 349.7227,86.1943 M349.7227,58.1483 C327.9497,58.1483 313.9527,65.9073 313.9527,78.9883 C313.9527,92.0703 327.9497,99.8303 349.7227,99.8303 C371.6077,99.8303 385.6057,92.0703 385.6057,78.9883 C385.6057,65.9073 371.6077,58.1483 349.7227,58.1483" id="Fill-14"></path>
        </g>
    </g>
</svg>